<svg width="48" height="48" viewBox="0 0 48 48" fill="none" xmlns="http://www.w3.org/2000/svg">
<path d="M29.5762 48H11.8135L29.5762 30.2373V48ZM38.3027 0C43.6579 0 48 4.3421 48 9.69727V38.3027C48 42.7343 45.0279 46.4682 40.9697 47.627V16.8486C40.9697 16.1869 40.8554 15.5543 40.6494 14.9629C40.3876 14.0781 39.91 13.2441 39.2119 12.5459C36.9889 10.3204 33.3817 10.3204 31.1562 12.5459L1.72559 41.9756C1.48079 42.218 1.27012 42.4805 1.08105 42.752C0.392569 41.4186 0 39.9076 0 38.3027V9.69727C0 4.3421 4.34211 0 9.69727 0H38.3027ZM11.6777 7.27734C8.59894 7.27734 6.10156 9.77472 6.10156 12.8535C6.10165 15.9322 8.599 18.4287 11.6777 18.4287C14.7564 18.4286 17.2528 15.9322 17.2529 12.8535C17.2529 9.77477 14.7565 7.27742 11.6777 7.27734Z" fill="url(#paint0_linear_397_916)"/>
<defs>
<linearGradient id="paint0_linear_397_916" x1="7.56124" y1="10.2667" x2="44.9892" y2="40.3177" gradientUnits="userSpaceOnUse">
<stop stop-color="#387EE5"/>
<stop offset="1" stop-color="#5092F3"/>
</linearGradient>
</defs>
</svg>
