<svg width="64" height="64" viewBox="0 0 64 64" fill="none" xmlns="http://www.w3.org/2000/svg">
<path d="M39.4346 64H15.751L39.4346 40.3174V64ZM51.0703 0C58.2105 0 64 5.78947 64 12.9297V51.0703C64 56.979 60.0369 61.9569 54.626 63.502V22.4648C54.626 21.5825 54.4739 20.7389 54.1992 19.9502C53.8502 18.7705 53.214 17.6584 52.2832 16.7275C49.3192 13.7603 44.5093 13.7603 41.542 16.7275L2.30176 55.9678C1.9753 56.291 1.69353 56.6399 1.44141 57.002C0.523496 55.2242 0 53.21 0 51.0703V12.9297C0 5.78947 5.78948 0 12.9297 0H51.0703ZM15.5703 9.70312C11.4653 9.70312 8.1358 13.0327 8.13574 17.1377C8.13574 21.2428 11.4653 24.5723 15.5703 24.5723C19.6753 24.5722 23.0049 21.2427 23.0049 17.1377C23.0048 13.0328 19.6752 9.70323 15.5703 9.70312Z" fill="url(#paint0_linear_397_913)"/>
<defs>
<linearGradient id="paint0_linear_397_913" x1="10.0817" y1="13.6889" x2="59.9856" y2="53.757" gradientUnits="userSpaceOnUse">
<stop stop-color="#387EE5"/>
<stop offset="1" stop-color="#5092F3"/>
</linearGradient>
</defs>
</svg>
