<svg width="48" height="48" viewBox="0 0 48 48" fill="none" xmlns="http://www.w3.org/2000/svg">
<rect width="48" height="48" rx="5.625" fill="url(#paint0_linear_397_952)"/>
<g clip-path="url(#clip0_397_952)">
<path d="M39.6852 12.4509L37.9988 7.96875L37.3392 8.2163C36.2486 8.62888 35.6977 9.84413 36.11 10.9356L37.0356 13.3886C37.1555 13.7112 37.2605 14.0375 37.3279 14.3751C37.5828 15.6466 37.4891 16.9931 37.0019 18.1971L36.9194 18.3996L36.5822 19.2398C36.466 19.5286 36.3648 19.8212 36.2786 20.1212L36.882 20.365C37.5603 20.6388 38.2798 20.7851 39.0069 20.8189C39.0593 20.6426 39.1193 20.4663 39.1905 20.29L39.6103 19.251C39.6852 19.071 39.7489 18.8872 39.8089 18.6997C40.1199 17.7657 40.2811 16.7943 40.2886 15.8228C40.2961 14.6826 40.0974 13.5386 39.6852 12.4509Z" fill="white"/>
<path d="M46.4199 20.7436C45.9777 19.6633 44.7484 19.1495 43.6691 19.5883L41.799 20.3535C40.9146 20.7136 39.9589 20.8673 39.007 20.8186C38.28 20.7848 37.5605 20.6385 36.8821 20.3647L36.2788 20.1209L35.844 19.9447C35.4281 19.7759 35.0008 19.6408 34.5698 19.5321L34.2663 20.2897C34.0152 20.9161 33.869 21.5837 33.8203 22.2551C34.1539 22.3301 34.4799 22.4277 34.7984 22.5552L35.8365 22.9753C35.8665 22.9865 35.8928 22.9978 35.9227 23.009C36.8409 23.3691 37.8116 23.5754 38.7934 23.6317C40.1763 23.7104 41.5779 23.4891 42.8671 22.9603L46.6897 21.3962L46.4236 20.7436H46.4199Z" fill="white" fill-opacity="0.7"/>
<path d="M36.8821 15.433L35.844 15.0129C35.6679 14.9417 35.4918 14.8779 35.3119 14.8179C34.36 14.4991 33.3706 14.3378 32.3812 14.334C31.2532 14.3303 30.1251 14.5291 29.0458 14.9379L24.5674 16.6258L24.8147 17.2859C25.227 18.3774 26.4412 18.9287 27.5318 18.5161L30.0389 17.5709C30.7885 17.2896 31.5867 17.1509 32.3887 17.1584C33.2094 17.1621 34.0302 17.3196 34.7909 17.6272L35.1395 17.766L35.8328 18.0435C36.1888 18.1861 36.5523 18.3061 36.9233 18.4036L37.0058 18.2011C37.3318 17.3909 37.4817 16.5095 37.4668 15.6356C37.2719 15.5793 37.077 15.5118 36.8859 15.433H36.8821Z" fill="white" fill-opacity="0.7"/>
<path d="M34.2776 25.2109C33.8954 24.277 33.7454 23.2568 33.8204 22.2553C33.8691 21.5839 34.0153 20.9201 34.2664 20.2899L34.5699 19.5323L34.6824 19.251C34.8772 18.7634 35.0309 18.2683 35.1396 17.7619L34.791 17.6231C34.0303 17.3156 33.2095 17.1618 32.3888 17.1543C32.3139 17.5106 32.2089 17.8594 32.074 18.197L31.6543 19.236C31.6543 19.236 31.643 19.2735 31.6355 19.2885C31.2645 20.2262 31.0509 21.2239 30.9984 22.2253C30.9235 23.6019 31.1483 24.9896 31.673 26.2724L33.2358 30.0982L33.8879 29.8319C34.9672 29.3893 35.4844 28.159 35.0421 27.0788L34.2776 25.2072V25.2109Z" fill="white"/>
<path d="M28.6598 39.944H26.0364C25.9315 39.944 25.8491 39.8615 25.8491 39.7565V25.5186L12.5899 31.4861V39.7527C12.5899 39.8578 12.5075 39.9403 12.4025 39.9403H9.77918C9.67424 39.9403 9.5918 39.8578 9.5918 39.7527V29.787C9.5918 29.6407 9.67799 29.5057 9.81291 29.4456L28.3188 21.1152C28.5661 21.0027 28.8472 21.1865 28.8472 21.4565V39.7527C28.8472 39.8578 28.7647 39.9403 28.6598 39.9403V39.944Z" fill="white"/>
<path d="M13.467 25.7175L3.24717 21.1191C2.99982 21.0066 2.71875 21.1904 2.71875 21.4604V39.7566C2.71875 39.8617 2.8012 39.9442 2.90613 39.9442H5.52948C5.63441 39.9442 5.71686 39.8617 5.71686 39.7566V25.5187L9.72684 27.3229L13.467 25.7175Z" fill="white" fill-opacity="0.7"/>
<path d="M22.7798 34.0029H15.6593C15.5558 34.0029 15.4719 34.0869 15.4719 34.1905V36.816C15.4719 36.9196 15.5558 37.0035 15.6593 37.0035H22.7798C22.8833 37.0035 22.9672 36.9196 22.9672 36.816V34.1905C22.9672 34.0869 22.8833 34.0029 22.7798 34.0029Z" fill="white"/>
</g>
<defs>
<linearGradient id="paint0_linear_397_952" x1="-1.8137e-07" y1="3.30001" x2="49.805" y2="5.41086" gradientUnits="userSpaceOnUse">
<stop stop-color="#5CAACE"/>
<stop offset="1" stop-color="#01C697"/>
</linearGradient>
<clipPath id="clip0_397_952">
<rect width="44.0625" height="31.9906" fill="white" transform="translate(2.625 7.96875)"/>
</clipPath>
</defs>
</svg>
