<svg width="64" height="64" viewBox="0 0 64 64" fill="none" xmlns="http://www.w3.org/2000/svg">
<rect width="64" height="64" rx="7.5" fill="url(#paint0_linear_397_943)"/>
<g clip-path="url(#clip0_397_943)">
<path d="M52.9138 16.6012L50.6652 10.625L49.7857 10.9551C48.3317 11.5052 47.5971 13.1255 48.1468 14.5808L49.381 17.8515C49.5409 18.2816 49.6808 18.7166 49.7707 19.1667C50.1105 20.8621 49.9856 22.6574 49.336 24.2628L49.2261 24.5328L48.7764 25.6531C48.6215 26.0381 48.4866 26.4282 48.3716 26.8283L49.1761 27.1534C50.0806 27.5184 51.0399 27.7135 52.0093 27.7585C52.0793 27.5234 52.1592 27.2884 52.2542 27.0533L52.8138 25.6681C52.9138 25.428 52.9987 25.183 53.0787 24.9329C53.4934 23.6877 53.7083 22.3924 53.7183 21.0971C53.7283 19.5768 53.4634 18.0515 52.9138 16.6012Z" fill="white"/>
<path d="M61.8932 27.6584C61.3035 26.2181 59.6646 25.533 58.2255 26.1181L55.7321 27.1383C54.5528 27.6184 53.2786 27.8234 52.0094 27.7584C51.04 27.7134 50.0806 27.5184 49.1762 27.1533L48.3717 26.8282L47.7921 26.5932C47.2374 26.3682 46.6678 26.1881 46.0931 26.0431L45.6884 27.0533C45.3536 27.8885 45.1587 28.7786 45.0938 29.6738C45.5385 29.7738 45.9732 29.9039 46.3979 30.0739L47.7821 30.634C47.822 30.649 47.857 30.664 47.897 30.679C49.1212 31.1591 50.4154 31.4342 51.7246 31.5092C53.5684 31.6142 55.4372 31.3192 57.1562 30.614L62.2529 28.5286L61.8982 27.6584H61.8932Z" fill="white" fill-opacity="0.7"/>
<path d="M49.1763 20.5772L47.7921 20.0171C47.5573 19.9221 47.3224 19.837 47.0826 19.757C45.8134 19.3319 44.4942 19.1169 43.175 19.1119C41.671 19.1069 40.1669 19.3719 38.7278 19.917L32.7566 22.1675L33.0864 23.0477C33.636 24.503 35.255 25.2381 36.7091 24.688L40.052 23.4278C41.0514 23.0527 42.1157 22.8676 43.185 22.8777C44.2793 22.8827 45.3736 23.0927 46.388 23.5028L46.8527 23.6878L47.7771 24.0579C48.2518 24.2479 48.7365 24.408 49.2312 24.538L49.3411 24.2679C49.7759 23.1877 49.9757 22.0125 49.9558 20.8472C49.6959 20.7722 49.4361 20.6822 49.1812 20.5772H49.1763Z" fill="white" fill-opacity="0.7"/>
<path d="M45.7035 33.6147C45.1938 32.3695 44.9939 31.0092 45.0939 29.6739C45.1588 28.7788 45.3537 27.8936 45.6885 27.0534L46.0932 26.0432L46.2431 25.6681C46.503 25.018 46.7079 24.3579 46.8528 23.6827L46.3881 23.4977C45.3737 23.0876 44.2794 22.8826 43.1851 22.8726C43.0851 23.3477 42.9452 23.8127 42.7653 24.2628L42.2057 25.6481C42.2057 25.6481 42.1907 25.6981 42.1807 25.7181C41.686 26.9684 41.4012 28.2987 41.3312 29.6339C41.2313 31.4693 41.5311 33.3197 42.2307 35.03L44.3144 40.1311L45.1838 39.776C46.6229 39.1859 47.3125 37.5455 46.7228 36.1052L45.7035 33.6097V33.6147Z" fill="white"/>
<path d="M38.213 53.2589H34.7153C34.5753 53.2589 34.4654 53.1488 34.4654 53.0088V34.025L16.7865 41.9816V53.0038C16.7865 53.1438 16.6766 53.2539 16.5367 53.2539H13.0389C12.899 53.2539 12.7891 53.1438 12.7891 53.0038V39.7161C12.7891 39.5211 12.904 39.341 13.0839 39.261L37.7583 28.1538C38.0881 28.0037 38.4629 28.2488 38.4629 28.6089V53.0038C38.4629 53.1438 38.353 53.2539 38.213 53.2539V53.2589Z" fill="white"/>
<path d="M17.956 34.2899L4.32956 28.1586C3.99976 28.0086 3.625 28.2537 3.625 28.6137V53.0087C3.625 53.1487 3.73493 53.2587 3.87484 53.2587H7.37264C7.51255 53.2587 7.62248 53.1487 7.62248 53.0087V34.0248L12.9691 36.4303L17.956 34.2899Z" fill="white" fill-opacity="0.7"/>
<path d="M30.373 45.3369H20.879C20.741 45.3369 20.6292 45.4489 20.6292 45.587V49.0877C20.6292 49.2258 20.741 49.3377 20.879 49.3377H30.373C30.511 49.3377 30.6229 49.2258 30.6229 49.0877V45.587C30.6229 45.4489 30.511 45.3369 30.373 45.3369Z" fill="white"/>
</g>
<defs>
<linearGradient id="paint0_linear_397_943" x1="-2.41827e-07" y1="4.40001" x2="66.4067" y2="7.21448" gradientUnits="userSpaceOnUse">
<stop stop-color="#5CAACE"/>
<stop offset="1" stop-color="#01C697"/>
</linearGradient>
<clipPath id="clip0_397_943">
<rect width="58.75" height="42.6541" fill="white" transform="translate(3.5 10.625)"/>
</clipPath>
</defs>
</svg>
