<svg width="16" height="16" viewBox="0 0 16 16" fill="none" xmlns="http://www.w3.org/2000/svg">
<path d="M9.8584 16H3.9375L9.8584 10.0791V16ZM12.7676 0C14.5526 0 16 1.44737 16 3.23242V12.7676C16 14.2448 15.009 15.4897 13.6562 15.876V5.61621C13.6562 5.3956 13.6185 5.18448 13.5498 4.9873C13.4625 4.69243 13.303 4.41432 13.0703 4.18164C12.3294 3.4402 11.1275 3.44015 10.3857 4.18164L0.575195 13.9922C0.493665 14.0729 0.42333 14.1605 0.360352 14.251C0.130856 13.8065 0 13.3025 0 12.7676V3.23242C0 1.44737 1.44737 0 3.23242 0H12.7676ZM3.89258 2.42578C2.86641 2.42578 2.03433 3.25804 2.03418 4.28418C2.03418 5.31044 2.86631 6.14258 3.89258 6.14258C4.91882 6.14255 5.75098 5.31043 5.75098 4.28418C5.75083 3.25806 4.91873 2.42581 3.89258 2.42578Z" fill="url(#paint0_linear_397_919)"/>
<defs>
<linearGradient id="paint0_linear_397_919" x1="2.52041" y1="3.42223" x2="14.9964" y2="13.4392" gradientUnits="userSpaceOnUse">
<stop stop-color="#387EE5"/>
<stop offset="1" stop-color="#5092F3"/>
</linearGradient>
</defs>
</svg>
