<svg width="16" height="16" viewBox="0 0 16 16" fill="none" xmlns="http://www.w3.org/2000/svg">
<rect width="16" height="16" rx="1.875" fill="url(#paint0_linear_397_961)"/>
<g clip-path="url(#clip0_397_961)">
<path d="M13.2286 4.1503L12.6664 2.65625L12.4466 2.73877C12.083 2.87629 11.8994 3.28138 12.0368 3.6452L12.3454 4.46287C12.3853 4.57039 12.4203 4.67916 12.4428 4.79168C12.5278 5.21552 12.4965 5.66436 12.3341 6.06569L12.3066 6.13321L12.1942 6.41326C12.1555 6.50953 12.1218 6.60705 12.093 6.70707L12.2942 6.78834C12.5203 6.87961 12.7601 6.92837 13.0025 6.93962C13.0199 6.88086 13.0399 6.8221 13.0637 6.76333L13.2036 6.41701C13.2286 6.357 13.2498 6.29574 13.2698 6.23323C13.3735 5.92191 13.4272 5.5981 13.4297 5.27428C13.4322 4.8942 13.366 4.51288 13.2286 4.1503Z" fill="white"/>
<path d="M15.4733 6.91485C15.3259 6.55477 14.9161 6.38349 14.5564 6.52977L13.933 6.78482C13.6382 6.90485 13.3196 6.95611 13.0023 6.93985C12.76 6.9286 12.5202 6.87984 12.294 6.78857L12.0929 6.70731L11.948 6.64854C11.8094 6.59228 11.6669 6.54727 11.5233 6.51102L11.4221 6.76357C11.3384 6.97236 11.2897 7.1949 11.2734 7.4187C11.3846 7.44371 11.4933 7.47621 11.5995 7.51872L11.9455 7.65875C11.9555 7.6625 11.9643 7.66625 11.9742 7.67C12.2803 7.79003 12.6039 7.85879 12.9311 7.87754C13.3921 7.9038 13.8593 7.83003 14.289 7.65375L15.5632 7.13239L15.4745 6.91485H15.4733Z" fill="white" fill-opacity="0.7"/>
<path d="M12.2941 5.14417L11.9481 5.00415C11.8894 4.98039 11.8307 4.95914 11.7707 4.93913C11.4534 4.83286 11.1236 4.7791 10.7938 4.77785C10.4178 4.7766 10.0418 4.84286 9.68202 4.97914L8.18921 5.54175L8.27166 5.7618C8.40907 6.12562 8.81382 6.30941 9.17734 6.17188L10.0131 5.85682C10.2629 5.76305 10.529 5.71679 10.7963 5.71929C11.0699 5.72054 11.3435 5.77305 11.5971 5.87557L11.7132 5.92183L11.9443 6.01435C12.063 6.06186 12.1842 6.10187 12.3079 6.13437L12.3353 6.06686C12.444 5.79681 12.494 5.503 12.489 5.21169C12.424 5.19293 12.3591 5.17043 12.2954 5.14417H12.2941Z" fill="white" fill-opacity="0.7"/>
<path d="M11.4259 8.40381C11.2985 8.09249 11.2485 7.75242 11.2735 7.41861C11.2897 7.19481 11.3384 6.97352 11.4221 6.76347L11.5233 6.51092L11.5608 6.41715C11.6257 6.25462 11.677 6.08959 11.7132 5.9208L11.597 5.87454C11.3434 5.77202 11.0698 5.72076 10.7963 5.71826C10.7713 5.83704 10.7363 5.95331 10.6913 6.06583L10.5514 6.41215C10.5514 6.41215 10.5477 6.42466 10.5452 6.42966C10.4215 6.74222 10.3503 7.07479 10.3328 7.4086C10.3078 7.86745 10.3828 8.33004 10.5577 8.75763L11.0786 10.0329L11.296 9.94412C11.6557 9.79659 11.8281 9.38651 11.6807 9.02643L11.4259 8.40256V8.40381Z" fill="white"/>
<path d="M9.55326 13.3148H8.67881C8.64383 13.3148 8.61635 13.2873 8.61635 13.2523V8.50636L4.19664 10.4955V13.2511C4.19664 13.2861 4.16915 13.3136 4.13418 13.3136H3.25973C3.22475 13.3136 3.19727 13.2861 3.19727 13.2511V9.92915C3.19727 9.88039 3.226 9.83538 3.27097 9.81538L9.43958 7.03856C9.52203 7.00105 9.61572 7.06232 9.61572 7.15233V13.2511C9.61572 13.2861 9.58824 13.3136 9.55326 13.3136V13.3148Z" fill="white"/>
<path d="M4.48899 8.57235L1.08239 7.03954C0.999941 7.00203 0.90625 7.06329 0.90625 7.15331V13.252C0.90625 13.2871 0.933733 13.3146 0.968711 13.3146H1.84316C1.87814 13.3146 1.90562 13.2871 1.90562 13.252V8.50609L3.24228 9.10746L4.48899 8.57235Z" fill="white" fill-opacity="0.7"/>
<path d="M7.59319 11.334H5.21969C5.18519 11.334 5.15723 11.362 5.15723 11.3965V12.2717C5.15723 12.3062 5.18519 12.3342 5.21969 12.3342H7.59319C7.62769 12.3342 7.65565 12.3062 7.65565 12.2717V11.3965C7.65565 11.362 7.62769 11.334 7.59319 11.334Z" fill="white"/>
</g>
<defs>
<linearGradient id="paint0_linear_397_961" x1="-6.04568e-08" y1="1.1" x2="16.6017" y2="1.80362" gradientUnits="userSpaceOnUse">
<stop stop-color="#5CAACE"/>
<stop offset="1" stop-color="#01C697"/>
</linearGradient>
<clipPath id="clip0_397_961">
<rect width="14.6875" height="10.6635" fill="white" transform="translate(0.875 2.65625)"/>
</clipPath>
</defs>
</svg>
