<svg width="16" height="16" viewBox="0 0 16 16" fill="none" xmlns="http://www.w3.org/2000/svg">
<rect width="16" height="16" rx="4" fill="#47B2F4"/>
<path d="M11.2495 11H4.75123C4.28528 11 3.84591 10.7955 3.51442 10.4248C3.18294 10.0542 3 9.56294 3 9.04196C3 8.52098 3.17669 8.04633 3.49801 7.67745C3.77789 7.35664 4.13908 7.15472 4.52998 7.09965C4.56907 6.55944 4.77625 6.05769 5.12259 5.67045C5.50958 5.23776 6.024 5 6.57048 5C7.20061 5 7.78696 5.31993 8.17395 5.86538C8.42491 5.67832 8.72043 5.57692 9.02533 5.57692C9.87046 5.57692 10.5577 6.34528 10.5577 7.29021V7.30682L10.1894 7.30157V7.28934C10.1894 6.57168 9.66719 5.98689 9.02455 5.98689C8.74154 5.98689 8.46869 6.1014 8.25604 6.31031L8.09655 6.46766L7.98085 6.26836C7.66891 5.73164 7.14197 5.41084 6.57048 5.41084C5.64483 5.41084 4.89117 6.25262 4.89039 7.28759V7.49038L4.71214 7.49563C3.971 7.51836 3.36745 8.21241 3.36745 9.04108C3.36745 9.86976 3.98819 10.5883 4.75123 10.5883H11.2488C12.0118 10.5883 12.6326 9.89423 12.6326 9.04108H13C13 9.56206 12.8171 10.0533 12.4856 10.424C12.1549 10.7955 11.7155 11 11.2495 11Z" fill="white" stroke="white" stroke-width="0.5"/>
</svg>
